<?xml version="1.0" encoding="utf-8"?>
<!-- Generator: Adobe Illustrator 25.4.1, SVG Export Plug-In . SVG Version: 6.00 Build 0)  -->
<svg version="1.1" id="Layer_1" xmlns="http://www.w3.org/2000/svg" xmlns:xlink="http://www.w3.org/1999/xlink" x="0px" y="0px"
	 viewBox="0 0 512 512" style="enable-background:new 0 0 512 512;" xml:space="preserve">
<style type="text/css">
	.st0{fill:#17C3B2;}
	.st1{clip-path:url(#SVGID_00000053540997925095636430000004687469102371348124_);fill:#33879E;}
	.st2{fill:#FFE2B3;}
	.st3{fill:#F4717D;}
	.st4{clip-path:url(#SVGID_00000079478036206808690360000008823969798973945990_);fill:#FFCB77;}
	.st5{fill:#FFCB77;}
</style>
<path class="st0" d="M387.2,512.2H124.5c-68.9,0-124.7-55.8-124.7-124.7V124.8C-0.2,55.9,55.6,0.1,124.5,0.1h262.7
	c68.9,0,124.7,55.8,124.7,124.7v262.7C511.9,456.4,456.1,512.2,387.2,512.2z"/>
<g>
	<g>
		<g>
			<defs>
				<polygon id="SVGID_1_" points="511.9,512.2 163.1,512.2 80.2,438.2 110.7,404.2 110.7,107.3 258.7,256.2 429.2,72.6 
					511.9,146.6 				"/>
			</defs>
			<clipPath id="SVGID_00000001632503499576192090000012239043453183176343_">
				<use xlink:href="#SVGID_1_"  style="overflow:visible;"/>
			</clipPath>
			<path style="clip-path:url(#SVGID_00000001632503499576192090000012239043453183176343_);fill:#33879E;" d="M387.2,512.2H124.5
				c-68.9,0-124.7-55.8-124.7-124.7V124.8C-0.2,55.9,55.6,0.1,124.5,0.1h262.7c68.9,0,124.7,55.8,124.7,124.7v262.7
				C511.9,456.4,456.1,512.2,387.2,512.2z"/>
		</g>
	</g>
</g>
<rect x="187.8" y="150.5" transform="matrix(0.7071 -0.7071 0.7071 0.7071 -46.7369 278.2191)" class="st2" width="249.4" height="90"/>
<path class="st3" d="M400.6,449.9c-24.8,0-45-20.2-45-45V107.4c0-24.8,20.2-45,45-45s45,20.2,45,45v297.6
	C445.6,429.7,425.4,449.9,400.6,449.9z"/>
<g>
	<g>
		<g>
			<defs>
				<path id="SVGID_00000047744843361914504450000013247713501377691794_" d="M480.9,90.2c-75,75.3-150,150.7-225.1,226
					c-89.6-98-65.5-234.3,5.8-279C318.7,1.2,415.6,17.9,480.9,90.2z"/>
			</defs>
			<clipPath id="SVGID_00000127737174227213106070000001224707262407498399_">
				<use xlink:href="#SVGID_00000047744843361914504450000013247713501377691794_"  style="overflow:visible;"/>
			</clipPath>
			<path style="clip-path:url(#SVGID_00000127737174227213106070000001224707262407498399_);fill:#FFCB77;" d="M400.8,449.9
				c-24.8,0-45-20.2-45-45V107.4c0-24.8,20.2-45,45-45c24.8,0,45,20.2,45,45v297.6C445.8,429.7,425.6,449.9,400.8,449.9z"/>
		</g>
	</g>
</g>
<rect x="154.2" y="70.7" transform="matrix(0.7071 -0.7071 0.7071 0.7071 -80.2125 198.1951)" class="st3" width="90" height="250.4"/>
<path class="st5" d="M113.7,449.8c-26.3,1.8-48-19.5-48-46V108.5c0-26.4,21.6-47.8,48-46c23.4,1.5,41.9,21,41.9,44.8v297.6
	C155.7,428.7,137.1,448.3,113.7,449.8z"/>
</svg>
